<svg width="1299" height="1299" xmlns="http://www.w3.org/2000/svg" xmlns:xlink="http://www.w3.org/1999/xlink" xml:space="preserve" overflow="hidden"><defs><clipPath id="clip0"><rect x="0" y="0" width="1299" height="1299"/></clipPath></defs><g clip-path="url(#clip0)"><rect x="0" y="0" width="1299" height="1299" fill="#FFFFFF" fill-opacity="0"/><path d="M0 649.5C-8.269e-14 290.791 290.791-8.269e-14 649.5-1.6538e-13 1008.21-3.3076e-13 1299 290.791 1299 649.5 1299 1008.21 1008.21 1299 649.5 1299 290.791 1299-4.1345e-13 1008.21 0 649.5ZM172.039 649.5C172.039 913.194 385.806 1126.96 649.5 1126.96 913.194 1126.96 1126.96 913.194 1126.96 649.5 1126.96 385.806 913.194 172.039 649.5 172.039 385.806 172.039 172.039 385.806 172.039 649.5Z" fill="#141414" fill-rule="evenodd"/></g></svg>