<svg width="1299" height="1299" xmlns="http://www.w3.org/2000/svg" xmlns:xlink="http://www.w3.org/1999/xlink" xml:space="preserve" overflow="hidden"><defs><clipPath id="clip0"><rect x="0" y="0" width="1299" height="1299"/></clipPath></defs><g clip-path="url(#clip0)"><rect x="0" y="0" width="1299" height="1299" fill="#FFFFFF" fill-opacity="0"/><path d="M157.453 714.914C121.434 750.932 63.0366 750.932 27.0181 714.914L27.0181 714.914C-9.00053 678.895-9.00059 620.497 27.0179 584.479L445.843 165.655C481.862 129.636 540.259 129.636 576.278 165.655L576.277 165.655C612.295 201.673 612.296 260.071 576.277 296.09Z" fill="#141414" fill-rule="evenodd"/><path d="M27.0185 714.914C-8.99999 678.895-8.99993 620.498 27.0186 584.479L27.0186 584.479C63.0372 548.461 121.435 548.461 157.453 584.479L576.278 1003.3C612.296 1039.32 612.296 1097.72 576.277 1133.74L576.277 1133.74C540.259 1169.76 481.861 1169.76 445.843 1133.74Z" fill="#141414" fill-rule="evenodd"/><path d="M92.4998 742C41.4136 742-2.82801e-14 700.586-3.76645e-14 649.5L-1.6992e-14 649.5C-4.70489e-14 598.414 41.4136 557 92.4998 557L1206.5 557C1257.59 557 1299 598.414 1299 649.5L1299 649.5C1299 700.586 1257.59 742 1206.5 742Z" fill="#141414" fill-rule="evenodd"/></g></svg>