<svg width="1299" height="1300" xmlns="http://www.w3.org/2000/svg" xmlns:xlink="http://www.w3.org/1999/xlink" xml:space="preserve" overflow="hidden"><defs><clipPath id="clip0"><rect x="0" y="0" width="1299" height="1300"/></clipPath></defs><g clip-path="url(#clip0)"><rect x="-1.54596e-13" y="0" width="1299" height="1299" fill="#FFFFFF" fill-opacity="0"/><path d="M714.914 1141.92C750.933 1177.94 750.933 1236.34 714.914 1272.36L714.914 1272.36C678.896 1308.38 620.498 1308.38 584.479 1272.36L165.655 853.532C129.637 817.513 129.637 759.116 165.655 723.097L165.655 723.098C201.674 687.08 260.071 687.08 296.09 723.098Z" fill="#141414" fill-rule="evenodd"/><path d="M714.914 1272.36C678.896 1308.38 620.498 1308.38 584.479 1272.36L584.479 1272.36C548.461 1236.34 548.461 1177.94 584.479 1141.92L1003.3 723.098C1039.32 687.079 1097.72 687.079 1133.74 723.098L1133.74 723.098C1169.76 759.116 1169.76 817.514 1133.74 853.533Z" fill="#141414" fill-rule="evenodd"/><path d="M742 1206.5C742 1257.59 700.586 1299 649.5 1299L649.5 1299C598.414 1299 557 1257.59 557 1206.5L557 92.4998C557 41.4135 598.414 0 649.5 0L649.5 0C700.586 0 742 41.4135 742 92.4998Z" fill="#141414" fill-rule="evenodd"/></g></svg>