<svg width="1299" height="1299" xmlns="http://www.w3.org/2000/svg" xmlns:xlink="http://www.w3.org/1999/xlink" xml:space="preserve" overflow="hidden"><defs><clipPath id="clip0"><rect x="0" y="0" width="1299" height="1299"/></clipPath></defs><g clip-path="url(#clip0)"><rect x="0" y="0" width="1299" height="1299" fill="#FFFFFF" fill-opacity="0"/><path d="M584.461 157.453C548.443 121.434 548.443 63.0366 584.461 27.0181L584.461 27.0181C620.48-9.00053 678.878-9.00059 714.896 27.0179L1133.72 445.843C1169.74 481.862 1169.74 540.259 1133.72 576.278L1133.72 576.277C1097.7 612.295 1039.3 612.296 1003.29 576.277Z" fill="#141414" fill-rule="evenodd"/><path d="M584.461 27.0185C620.48-8.99999 678.877-8.99993 714.896 27.0186L714.896 27.0186C750.914 63.0372 750.914 121.435 714.896 157.453L296.071 576.278C260.052 612.296 201.654 612.296 165.636 576.277L165.637 576.277C129.618 540.259 129.618 481.861 165.637 445.843Z" fill="#141414" fill-rule="evenodd"/><path d="M557 92.4998C557 41.4136 598.414-2.06725e-14 649.5-2.06725e-14L649.5 0C700.586-2.06725e-14 742 41.4136 742 92.4998L742 1206.5C742 1257.59 700.586 1299 649.5 1299L649.5 1299C598.414 1299 557 1257.59 557 1206.5Z" fill="#141414" fill-rule="evenodd"/></g></svg>