<svg width="1300" height="1299" xmlns="http://www.w3.org/2000/svg" xmlns:xlink="http://www.w3.org/1999/xlink" xml:space="preserve" overflow="hidden"><g><rect x="0" y="0" width="1299" height="1299" fill="#FFFFFF" fill-opacity="0"/><path d="M1141.92 584.461C1177.94 548.443 1236.34 548.443 1272.36 584.461L1272.36 584.461C1308.38 620.48 1308.38 678.878 1272.36 714.896L853.532 1133.72C817.513 1169.74 759.116 1169.74 723.097 1133.72L723.098 1133.72C687.08 1097.7 687.08 1039.3 723.098 1003.29Z" fill="#141414" fill-rule="evenodd"/><path d="M1272.36 584.461C1308.38 620.48 1308.38 678.877 1272.36 714.896L1272.36 714.896C1236.34 750.914 1177.94 750.914 1141.92 714.896L723.098 296.071C687.079 260.052 687.079 201.654 723.098 165.636L723.098 165.637C759.116 129.618 817.514 129.618 853.533 165.637Z" fill="#141414" fill-rule="evenodd"/><path d="M1206.5 557C1257.59 557 1299 598.414 1299 649.5L1299 649.5C1299 700.586 1257.59 742 1206.5 742L92.4998 742C41.4135 742 0 700.586 0 649.5L0 649.5C0 598.414 41.4135 557 92.4998 557Z" fill="#141414" fill-rule="evenodd"/></g></svg>