<svg width="1299" height="1299" xmlns="http://www.w3.org/2000/svg" xmlns:xlink="http://www.w3.org/1999/xlink" xml:space="preserve" overflow="hidden"><defs><clipPath id="clip0"><rect x="0" y="0" width="1299" height="1299"/></clipPath></defs><g clip-path="url(#clip0)"><rect x="0" y="0" width="1299" height="1299" fill="#FFFFFF" fill-opacity="0"/><path d="M0 385.502C-1.78398e-14 332.758 42.7577 290 95.502 290L1025.5 290C1078.24 290 1121 332.758 1121 385.502L1121 767.498C1121 820.242 1078.24 863 1025.5 863L95.502 863C42.7577 863 0 820.242 0 767.498Z" fill="#141414" fill-rule="evenodd"/><path d="M1208.5 469 1222.83 470.444C1266.3 479.341 1299 517.813 1299 563.923L1299 945.582C1299 998.28 1256.29 1041 1203.6 1041L274.286 1041C234.77 1041 200.865 1016.97 186.383 982.723L180 951.105 184.901 951.599 1114.21 951.599C1166.9 951.599 1209.61 908.879 1209.61 856.181L1209.61 474.522Z" fill="#141414" fill-rule="evenodd"/></g></svg>