<svg width="1299" height="1299" xmlns="http://www.w3.org/2000/svg" xmlns:xlink="http://www.w3.org/1999/xlink" xml:space="preserve" overflow="hidden"><defs><clipPath id="clip0"><rect x="0" y="0" width="1299" height="1299"/></clipPath></defs><g clip-path="url(#clip0)"><rect x="0" y="0" width="1299" height="1299" fill="#FFFFFF" fill-opacity="0"/><path d="M0 325 146.692 0 984 0 837.308 325Z" fill="#141414" fill-rule="evenodd" fill-opacity="0.501961" transform="matrix(6.12323e-17 1 1 -6.12323e-17 -2.10067e-14 315)"/><path d="M325 315 650 461.691 650 1299 325 1152.31Z" fill="#141414" fill-rule="evenodd" fill-opacity="0.2"/><path d="M0 325 146.692 0 984 0 837.308 325Z" fill="#141414" fill-rule="evenodd" fill-opacity="0.501961" transform="matrix(6.12323e-17 1 1 -6.12323e-17 650 315)"/><path d="M975 315 1299 461.241 1299 1299 975 1152.76Z" fill="#141414" fill-rule="evenodd" fill-opacity="0.2"/><path d="M424 487.5C424 272.937 597.714 99 812 99 1026.29 99 1200 272.937 1200 487.5 1200 702.063 1026.29 876 812 876 597.714 876 424 702.063 424 487.5ZM656.303 487.5C656.303 573.765 726.011 643.697 812 643.697 897.988 643.697 967.696 573.765 967.696 487.5 967.696 401.235 897.988 331.303 812 331.303 726.011 331.303 656.303 401.235 656.303 487.5Z" fill="#141414" fill-rule="evenodd" fill-opacity="0.501961"/><path d="M424 487.5C424 272.937 597.714 99 812 99 1026.29 99 1200 272.937 1200 487.5 1200 702.063 1026.29 876 812 876 597.714 876 424 702.063 424 487.5ZM564.479 487.5C564.479 624.478 675.298 735.52 812 735.52 948.702 735.52 1059.52 624.478 1059.52 487.5 1059.52 350.522 948.702 239.479 812 239.479 675.298 239.479 564.479 350.522 564.479 487.5Z" fill="#141414" fill-rule="evenodd"/><rect x="716" y="0" width="192" height="140" fill="#141414"/><rect x="716" y="834" width="192" height="141" fill="#141414"/><path d="M1224.69 763.783 1088.63 899.846 989.56 800.779 1125.62 664.716Z" fill="#141414" fill-rule="evenodd"/><path d="M634.659 173.752 498.596 309.815 399.529 210.748 535.592 74.6849Z" fill="#141414" fill-rule="evenodd"/><rect x="1159" y="391" width="140" height="192" fill="#141414"/><rect x="325" y="391" width="140" height="192" fill="#141414"/><path d="M1088.63 74.6851 1224.69 210.748 1125.62 309.815 989.559 173.752Z" fill="#141414" fill-rule="evenodd"/><path d="M498.595 664.716 634.658 800.779 535.591 899.846 399.528 763.783Z" fill="#141414" fill-rule="evenodd"/></g></svg>