<svg width="1299" height="1299" xmlns="http://www.w3.org/2000/svg" xmlns:xlink="http://www.w3.org/1999/xlink" xml:space="preserve" overflow="hidden"><g><rect x="0" y="0" width="1299" height="1299" fill="#FFFFFF" fill-opacity="0"/><path d="M43.6823 174.117C7.66387 138.098 7.66417 79.7006 43.6829 43.6818L43.6829 43.6818C79.7017 7.66302 138.099 7.66273 174.118 43.6811L1255.69 1125.26C1291.71 1161.28 1291.71 1219.68 1255.69 1255.69L1255.69 1255.69C1219.67 1291.71 1161.28 1291.71 1125.26 1255.69Z" fill="#141414" fill-rule="evenodd"/><path d="M1125.26 43.6825C1161.28 7.66405 1219.67 7.66435 1255.69 43.6831L1255.69 43.6831C1291.71 79.7019 1291.71 138.1 1255.69 174.118L174.115 1255.69C138.097 1291.71 79.6991 1291.71 43.6803 1255.69L43.683 1255.69C7.66418 1219.67 7.66394 1161.28 43.6823 1125.26Z" fill="#141414" fill-rule="evenodd"/></g></svg>