<svg width="1299" height="1299" xmlns="http://www.w3.org/2000/svg" xmlns:xlink="http://www.w3.org/1999/xlink" xml:space="preserve" overflow="hidden"><defs><clipPath id="clip0"><rect x="0" y="0" width="1299" height="1299"/></clipPath></defs><g clip-path="url(#clip0)"><rect x="0" y="0" width="1299" height="1299" fill="#FFFFFF" fill-opacity="0"/><path d="M87 1100 87 705 506 1100Z" fill="#141414" fill-rule="evenodd"/><path d="M87.0002 1100 274 1100 87.0002 1299Z" fill="#141414" fill-rule="evenodd"/><path d="M778 217C778 97.1542 875.378-2.7627e-14 995.5-5.5254e-14 1115.62-1.10508e-13 1213 97.1542 1213 217 1213 336.846 1115.62 434 995.5 434 875.378 434 778 336.846 778 217Z" fill="#141414" fill-rule="evenodd" fill-opacity="0.101961"/><path d="M573 346C573 226.154 670.378 129 790.5 129 910.622 129 1008 226.154 1008 346 1008 465.846 910.622 563 790.5 563 670.378 563 573 465.846 573 346Z" fill="#141414" fill-rule="evenodd" fill-opacity="0.4"/><path d="M368 474.5C368 354.378 465.378 257 585.5 257 705.622 257 803 354.378 803 474.5 803 594.622 705.622 692 585.5 692 465.378 692 368 594.622 368 474.5Z" fill="#141414" fill-rule="evenodd" fill-opacity="0.701961"/><path d="M163 603C163 483.154 260.378 386 380.5 386 500.622 386 598 483.154 598 603 598 722.846 500.622 820 380.5 820 260.378 820 163 722.846 163 603Z" fill="#141414" fill-rule="evenodd"/></g></svg>