<svg width="1299" height="1299" xmlns="http://www.w3.org/2000/svg" xmlns:xlink="http://www.w3.org/1999/xlink" xml:space="preserve" overflow="hidden"><defs><clipPath id="clip0"><rect x="0" y="0" width="1299" height="1299"/></clipPath></defs><g clip-path="url(#clip0)"><rect x="0" y="0" width="1299" height="1299" fill="#FFFFFF" fill-opacity="0"/><path d="M0 325 146.692 0 984 0 837.308 325Z" fill="#141414" fill-rule="evenodd" fill-opacity="0.501961" transform="matrix(6.12323e-17 1 1 -6.12323e-17 -2.10067e-14 315)"/><path d="M325 315 650 461.691 650 1299 325 1152.31Z" fill="#141414" fill-rule="evenodd" fill-opacity="0.2"/><path d="M0 325 146.692 0 984 0 837.308 325Z" fill="#141414" fill-rule="evenodd" fill-opacity="0.501961" transform="matrix(6.12323e-17 1 1 -6.12323e-17 650 315)"/><path d="M975 315 1299 461.241 1299 1299 975 1152.76Z" fill="#141414" fill-rule="evenodd" fill-opacity="0.2"/><path d="M377.179 597.77 474.374 614.147C469.599 663.28 461.926 711.387 451.354 758.472 440.782 805.557 428.334 845.476 414.01 878.232 409.236 874.136 402.927 870.042 395.082 865.948 387.238 861.854 379.224 857.76 371.04 853.664 362.854 849.57 354.67 845.988 346.485 842.918 338.3 839.847 331.139 837.288 325 835.241 340.005 804.533 351.429 768.026 359.274 725.717 367.118 683.41 373.085 640.761 377.179 597.77ZM687.181 593.676C698.775 622.337 709.69 653.384 719.921 686.822 730.152 720.259 736.631 749.26 739.36 773.826L649.325 803.509C646.598 778.262 640.971 748.578 632.445 714.459 623.919 680.34 613.858 648.608 602.263 619.265ZM760.845 572.18 1256.03 572.18 1256.03 679.656 1062.66 679.656 1062.66 819.887 1299 819.887 1299 927.363 699.458 927.363 699.458 819.887 939.89 819.887 939.89 679.656 760.845 679.656ZM1164.97 172.985 1266.26 198.574C1250.57 224.505 1233.52 251.289 1215.11 278.926 1196.69 306.562 1179.3 332.663 1162.93 357.229 1186.8 383.16 1209.31 410.967 1230.45 440.651 1251.6 470.334 1268.31 495.412 1280.58 515.883L1186.46 558.874C1174.18 532.261 1155.76 500.872 1131.21 464.704 1106.66 428.539 1079.71 393.054 1050.38 358.253 1061.3 343.241 1072.21 327.375 1083.12 310.657 1094.04 293.938 1104.61 277.39 1114.84 261.013 1125.07 244.635 1134.45 228.941 1142.98 213.928 1151.5 198.916 1158.83 185.268 1164.97 172.985ZM987.975 172.985 1089.26 197.552C1074.26 224.163 1057.89 251.289 1040.15 278.926 1022.42 306.562 1005.03 332.663 987.975 357.229 1010.48 384.524 1031.63 412.843 1051.41 442.187 1071.19 471.528 1086.88 496.778 1098.47 517.931L1004.34 558.874C992.067 532.261 974.845 500.872 952.678 464.704 930.51 428.539 905.103 393.054 876.456 358.253 887.369 343.241 898.282 327.375 909.196 310.657 920.109 293.938 930.51 277.39 940.401 261.013 950.291 244.635 959.328 228.941 967.513 213.928 975.698 198.916 982.519 185.268 987.975 172.985ZM814.046 172.985 915.334 197.552C900.329 223.481 884.47 250.437 867.76 278.414 851.048 306.392 834.508 332.663 818.138 357.229 839.284 385.89 858.892 414.891 876.968 444.233 895.043 473.576 909.196 498.824 919.427 519.979L822.232 558.874C812.001 532.261 796.824 501.042 776.704 465.216 756.581 429.391 733.562 393.738 707.643 358.253 728.105 327.545 747.885 294.962 766.983 260.501 786.081 226.041 801.77 196.868 814.046 172.985ZM724.013 50.1551 1281.61 50.1551 1281.61 156.608 724.013 156.608ZM493.813 0 599.193 36.8491C581.459 72.3326 562.532 108.841 542.41 146.373 522.289 183.904 502.679 216.999 483.582 245.659 489.721 252.483 495.518 259.307 500.974 266.13 506.431 272.954 511.547 279.438 516.321 285.578 534.056 256.919 550.936 228.429 566.966 200.11 582.994 171.79 596.806 145.007 608.401 119.759L707.643 165.82C678.996 208.81 648.303 254.189 615.563 301.956 582.823 349.723 550.084 394.078 517.344 435.021L606.355 429.903C600.898 418.303 595.442 407.043 589.985 396.126 584.528 385.208 579.072 374.63 573.615 364.394L659.556 328.569C669.787 346.311 679.678 364.906 689.227 384.354 698.775 403.802 707.473 423.079 715.317 442.187 723.16 461.293 730.152 479.718 736.289 497.46 742.428 515.201 747.204 531.237 750.614 545.568L659.556 587.534C656.146 570.474 651.03 550.345 644.209 527.143L593.054 531.237 593.054 955 488.698 955 488.698 539.427 346.485 550.686 334.208 445.257 407.872 441.163C415.375 431.609 423.047 421.885 430.891 411.991 438.735 402.096 446.408 391.69 453.912 380.772 439.587 357.57 421.684 333.175 400.198 307.586 378.712 281.996 357.738 258.625 337.276 237.471L396.618 155.585C400.028 158.997 403.778 162.579 407.872 166.332 411.964 170.085 416.056 173.668 420.148 177.08 434.472 148.419 448.285 118.224 461.585 86.4923 474.886 54.7625 485.627 25.9313 493.813 0Z" fill="#141414" fill-rule="evenodd"/></g></svg>