<svg width="1299" height="1299" xmlns="http://www.w3.org/2000/svg" xmlns:xlink="http://www.w3.org/1999/xlink" xml:space="preserve" overflow="hidden"><defs><clipPath id="clip0"><rect x="0" y="0" width="1299" height="1299"/></clipPath></defs><g clip-path="url(#clip0)"><rect x="0" y="0" width="1299" height="1299" fill="#FFFFFF" fill-opacity="0"/><path d="M346 650C346 578.203 404.203 520 476 520L476 520C547.797 520 606 578.203 606 650L606 650C606 721.797 547.797 780 476 780L476 780C404.203 780 346 721.797 346 650Z" fill="#141414" fill-rule="evenodd"/><path d="M0 650C-1.65507e-14 578.203 58.2029 520 130 520L130 520C201.797 520 260 578.203 260 650L260 650C260 721.797 201.797 780 130 780L130 780C58.2029 780 0 721.797 0 650Z" fill="#141414" fill-rule="evenodd"/><path d="M1039 650C1039 578.203 1097.2 520 1169 520L1169 520C1240.8 520 1299 578.203 1299 650L1299 650C1299 721.797 1240.8 780 1169 780L1169 780C1097.2 780 1039 721.797 1039 650Z" fill="#141414" fill-rule="evenodd"/><path d="M693 650C693 578.203 751.203 520 823 520L823 520C894.797 520 953 578.203 953 650L953 650C953 721.797 894.797 780 823 780L823 780C751.203 780 693 721.797 693 650Z" fill="#141414" fill-rule="evenodd"/></g></svg>