<svg width="1299" height="1299" xmlns="http://www.w3.org/2000/svg" xmlns:xlink="http://www.w3.org/1999/xlink" xml:space="preserve" overflow="hidden"><defs><clipPath id="clip0"><rect x="0" y="0" width="1299" height="1299"/></clipPath></defs><g clip-path="url(#clip0)"><rect x="0" y="0" width="1299" height="1299" fill="#FFFFFF" fill-opacity="0"/><path d="M91.9997 1299C41.1897 1299-3.85752e-14 1257.81-5.82451e-14 1207L-1.69001e-14 1207C-4.69063e-14 1156.19 41.1897 1115 91.9997 1115L1207 1115C1257.81 1115 1299 1156.19 1299 1207L1299 1207C1299 1257.81 1257.81 1299 1207 1299Z" fill="#141414" fill-rule="evenodd"/><path d="M0 91.9997C0 41.1897 41.1898-3.10088e-14 92-4.1345e-14L92 0C142.81-2.06725e-14 184 41.1897 184 91.9997L184 1207C184 1257.81 142.81 1299 92 1299L92 1299C41.1898 1299 0 1257.81 0 1207Z" fill="#141414" fill-rule="evenodd"/><path d="M1115 91.9997C1115 41.1897 1156.19-3.10088e-14 1207-4.1345e-14L1207 0C1257.81-2.06725e-14 1299 41.1897 1299 91.9997L1299 1207C1299 1257.81 1257.81 1299 1207 1299L1207 1299C1156.19 1299 1115 1257.81 1115 1207Z" fill="#141414" fill-rule="evenodd"/><path d="M91.9997 184C41.1897 184-3.85752e-14 142.81-5.82451e-14 92L-1.69001e-14 92C-4.69063e-14 41.1898 41.1897 0 91.9997 0L1207 0C1257.81 0 1299 41.1898 1299 92L1299 92C1299 142.81 1257.81 184 1207 184Z" fill="#141414" fill-rule="evenodd"/></g></svg>