<svg width="1300" height="1300" xmlns="http://www.w3.org/2000/svg" xmlns:xlink="http://www.w3.org/1999/xlink" xml:space="preserve" overflow="hidden"><defs><clipPath id="clip0"><rect x="0" y="0" width="1300" height="1300"/></clipPath></defs><g clip-path="url(#clip0)"><rect x="0" y="0" width="1299" height="1299" fill="#FFFFFF" fill-opacity="0"/><path d="M91.9996 1299C41.1896 1299-2.39739e-14 1257.81-4.97151e-14 1207L-1.69001e-14 1207C-5.90488e-14 1156.19 41.1896 1115 91.9996 1115L939 1115C989.81 1115 1031 1156.19 1031 1207L1031 1207C1031 1257.81 989.81 1299 939 1299Z" fill="#141414" fill-rule="evenodd"/><path d="M0 361.001C-1.63916e-14 310.19 41.19 269 92.0005 269L92.0005 269C142.811 269 184.001 310.19 184.001 361.001L184 1207C184 1257.81 142.81 1299 91.9994 1299L92.0005 1299C41.19 1299 0 1257.81 0 1207Z" fill="#141414" fill-rule="evenodd"/><path d="M91.9996 453C41.1896 453-2.39739e-14 411.81-4.97151e-14 361L-1.69001e-14 361C-5.90488e-14 310.19 41.1896 269 91.9996 269L939 269C989.81 269 1031 310.19 1031 361L1031 361C1031 411.81 989.81 453 939 453Z" fill="#141414" fill-rule="evenodd"/><path d="M846 361.5C846 310.414 887.414 269 938.5 269L938.5 269C989.586 269 1031 310.414 1031 361.5L1031 1206.5C1031 1257.59 989.586 1299 938.5 1299L938.5 1299C887.414 1299 846 1257.59 846 1206.5Z" fill="#141414" fill-rule="evenodd"/><path d="M361 184C310.19 184 269 142.81 269 91.9996L269 91.9996C269 41.1891 310.19-0.000946045 361-0.000946045L1207 0.000167847C1257.81 0.000167847 1299 41.1902 1299 92.0007L1299 91.9996C1299 142.81 1257.81 184 1207 184Z" fill="#141414" fill-rule="evenodd"/><path d="M1115 91.9996C1115 41.1896 1156.19-1.64075e-14 1207-3.2815e-14L1207 0C1257.81-3.2815e-14 1299 41.1896 1299 91.9996L1299 939C1299 989.81 1257.81 1031 1207 1031L1207 1031C1156.19 1031 1115 989.81 1115 939Z" fill="#141414" fill-rule="evenodd"/></g></svg>