<svg width="1299" height="1299" xmlns="http://www.w3.org/2000/svg" xmlns:xlink="http://www.w3.org/1999/xlink" xml:space="preserve" overflow="hidden"><g><rect x="0" y="0" width="1299" height="1299" fill="#FFFFFF" fill-opacity="0"/><path d="M0 0 0.000821784 0 0.00164357 0 33.424 0.845207C376.6 18.2408 649.5 302 649.5 649.5 649.5 997 376.6 1280.76 33.424 1298.15L0.00164357 1299 0.000821784 1299 0 1299C0 951.501 272.9 667.741 616.076 650.345L649.498 649.5 616.076 648.655C272.9 631.259 0 347.499 0 0ZM1299 0 1299 0 1299 0C1299 347.499 1026.1 631.259 682.924 648.655L649.502 649.5 682.924 650.345C1026.1 667.741 1299 951.501 1299 1299L1299 1299 1299 1299 1265.58 1298.15C922.4 1280.76 649.5 997 649.5 649.5 649.5 302 922.4 18.2408 1265.58 0.845207Z" fill="#141414" fill-rule="evenodd"/></g></svg>