<svg width="1299" height="1299" xmlns="http://www.w3.org/2000/svg" xmlns:xlink="http://www.w3.org/1999/xlink" xml:space="preserve" overflow="hidden"><g><rect x="0" y="0" width="1299" height="1299" fill="#FFFFFF" fill-opacity="0"/><path d="M41.587 1117.85 44.0215 1125.45C65.3116 1174.21 115.154 1208.43 173.244 1208.43L1266 1208.43 1266 1299 173.244 1299C95.79 1299 33 1238.17 33 1163.14 33 1153.76 33.9816 1144.6 35.8498 1135.76ZM1257.46 936.455 1263.16 954.214C1265.02 963.026 1265.99 972.15 1265.99 981.496 1265.99 1056.26 1203.43 1116.86 1126.26 1116.86L172.732 1117.36C151.028 1117.36 130.479 1122.16 112.153 1130.71L105.847 1134.22 92.2293 1121.69C83.0575 1111.96 75.3596 1101.01 69.3726 1089.22L64.6083 1077.87 73.9266 1066.93C99.2132 1042.43 134.146 1027.28 172.732 1027.28L1126.26 1026.78C1184.14 1026.78 1233.8 992.691 1255.01 944.106ZM33 846.127 1125.75 846.127C1164.48 846.127 1199.54 861.334 1224.92 885.921L1236.98 900.08 1229.63 917.593C1223.64 929.382 1215.94 940.331 1206.77 950.067L1199.13 957.099 1186.55 950.098C1168.16 941.512 1147.54 936.7 1125.75 936.7L33 936.7ZM957.75 147.392C973.877 147.392 990.005 160.668 1002.31 187.219L1266 756.223 1080.73 756.223 865.113 290.964 913.191 187.219C925.496 160.668 941.623 147.392 957.75 147.392ZM341.25 147.392C357.377 147.392 373.504 160.668 385.809 187.219L433.887 290.964 218.273 756.223 33 756.223 296.691 187.219C308.996 160.668 325.123 147.392 341.25 147.392ZM649.5 0C669.531 0 689.563 16.4899 704.846 49.4694L1032.37 756.223 266.626 756.223 594.154 49.4694C609.437 16.4899 629.469 0 649.5 0Z" fill="#141414" fill-rule="evenodd"/></g></svg>