<svg width="1300" height="1299" xmlns="http://www.w3.org/2000/svg" xmlns:xlink="http://www.w3.org/1999/xlink" xml:space="preserve" overflow="hidden"><defs><clipPath id="clip0"><rect x="0" y="0" width="1300" height="1299"/></clipPath></defs><g clip-path="url(#clip0)"><rect x="0" y="0" width="1299" height="1299" fill="#FFFFFF" fill-opacity="0"/><path d="M0 325 146.692 0 984 0 837.308 325Z" fill="#141414" fill-rule="evenodd" fill-opacity="0.501961" transform="matrix(6.12323e-17 1 1 -6.12323e-17 -2.10067e-14 315)"/><path d="M325 315 650 461.691 650 1299 325 1152.31Z" fill="#141414" fill-rule="evenodd" fill-opacity="0.2"/><path d="M0 325 146.692 0 984 0 837.308 325Z" fill="#141414" fill-rule="evenodd" fill-opacity="0.501961" transform="matrix(6.12323e-17 1 1 -6.12323e-17 650 315)"/><path d="M975 315 1299 461.241 1299 1299 975 1152.76Z" fill="#141414" fill-rule="evenodd" fill-opacity="0.2"/><path d="M1159.7 0.000129208 1299.37 80.6402 855.855 848.838 855.854 848.838 716.501 928.925 716.182 768.198 716.182 768.198Z" fill="#141414" fill-rule="evenodd"/></g></svg>