<svg width="1300" height="1300" xmlns="http://www.w3.org/2000/svg" xmlns:xlink="http://www.w3.org/1999/xlink" xml:space="preserve" overflow="hidden"><defs><clipPath id="clip0"><rect x="0" y="0" width="1300" height="1300"/></clipPath></defs><g clip-path="url(#clip0)"><path d="M91.9996 1299C41.1896 1299-2.39739e-14 1257.81-4.97151e-14 1207L-1.69001e-14 1207C-5.90488e-14 1156.19 41.1896 1115 91.9996 1115L939 1115C989.81 1115 1031 1156.19 1031 1207L1031 1207C1031 1257.81 989.81 1299 939 1299Z" fill="#141414" fill-rule="evenodd"/><path d="M0 361.001C-1.63916e-14 310.19 41.19 269 92.0005 269L92.0005 269C142.811 269 184.001 310.19 184.001 361.001L184 1207C184 1257.81 142.81 1299 91.9994 1299L92.0005 1299C41.19 1299 0 1257.81 0 1207Z" fill="#141414" fill-rule="evenodd"/><path d="M1115 92.013C1115 41.1956 1156.2-3.70959e-14 1207.01-2.47306e-14L1207.01 0C1257.83-2.47306e-14 1299.03 41.1956 1299.03 92.013L1299.03 684.987C1299.03 735.804 1257.83 777 1207.01 777L1207.01 777C1156.2 777 1115 735.804 1115 684.987Z" fill="#141414" fill-rule="evenodd"/><path d="M1207 0.000180446C1257.81 0.000180446 1299 41.19 1299 92.0001L1299 92.0001C1299 142.81 1257.81 184 1207 184L615 184C564.189 184 523 142.81 523 92.0001L523 92.0001C523 41.19 564.189 0.000180446 615 0.000180446Z" fill="#141414" fill-rule="evenodd"/><path d="M1141.94 27.0175C1177.95-9.001 1236.35-9.00088 1272.37 27.0178L1272.37 27.0178C1308.39 63.0364 1308.39 121.434 1272.37 157.453L615.974 813.849C579.955 849.867 521.557 849.867 485.539 813.848L485.541 813.848C449.522 777.83 449.522 719.432 485.54 683.414Z" fill="#141414" fill-rule="evenodd"/><path d="M91.9997 453C41.1897 453-7.56644e-15 411.81-1.69001e-14 361L-1.69001e-14 361C-4.288e-14 310.19 41.1897 269 91.9997 269L431 269C481.81 269 523 310.19 523 361L523 361C523 411.81 481.81 453 431 453Z" fill="#141414" fill-rule="evenodd"/><rect x="0" y="0" width="1299" height="1299" fill="#FFFFFF" fill-opacity="0"/><path d="M1031 1206.5C1031 1257.59 989.586 1299 938.5 1299L938.5 1299C887.414 1299 846 1257.59 846 1206.5L846 869.5C846 818.413 887.414 777 938.5 777L938.5 777C989.586 777 1031 818.413 1031 869.5Z" fill="#141414" fill-rule="evenodd"/></g></svg>