<svg width="1299" height="1299" xmlns="http://www.w3.org/2000/svg" xmlns:xlink="http://www.w3.org/1999/xlink" xml:space="preserve" overflow="hidden"><g><rect x="0" y="0" width="1299" height="1299" fill="#FFFFFF" fill-opacity="0"/><path d="M579.55 4.00013 599 284.663 575.159 288.308C527.158 298.152 482.555 317.343 443.326 343.9L427.179 356 243 143.888 286.709 111.135C355.742 64.399 434.234 30.6272 518.705 13.3057L579.55 4.00013Z" fill="#141414" fill-rule="evenodd"/><path d="M719.504 4.00013 780.52 13.3057C865.229 30.6272 943.941 64.399 1013.17 111.135L1057 143.888 872.303 356 856.111 343.9C816.772 317.343 772.044 298.152 723.908 288.308L700 284.663 719.504 4.00013Z" fill="#141414" fill-rule="evenodd"/><path d="M143.888 243 356 427.179 343.9 443.326C317.343 482.555 298.152 527.158 288.308 575.159L284.663 599 4.00013 579.55 13.3057 518.705C30.6272 434.234 64.399 355.742 111.135 286.709L143.888 243Z" fill="#141414" fill-rule="evenodd"/><path d="M1155.51 243 1188.17 286.709C1234.77 355.742 1268.45 434.234 1285.72 518.705L1295 579.55 1015.13 599 1011.5 575.159C1001.68 527.158 982.548 482.555 956.065 443.326L944 427.179 1155.51 243Z" fill="#141414" fill-rule="evenodd"/><path d="M284.663 700 288.308 723.908C298.152 772.044 317.343 816.772 343.9 856.111L356 872.303 143.888 1057 111.135 1013.17C64.399 943.941 30.6272 865.229 13.3057 780.52L4.00013 719.504 284.663 700Z" fill="#141414" fill-rule="evenodd"/><path d="M1015.13 700 1295 719.504 1285.72 780.52C1268.45 865.229 1234.77 943.941 1188.17 1013.17L1155.51 1057 944 872.303 956.065 856.111C982.548 816.772 1001.68 772.044 1011.5 723.908L1015.13 700Z" fill="#141414" fill-rule="evenodd"/><path d="M427.179 944 443.326 956.065C482.555 982.548 527.158 1001.68 575.159 1011.5L599 1015.13 579.55 1295 518.705 1285.72C434.234 1268.45 355.742 1234.77 286.709 1188.17L243 1155.51 427.179 944Z" fill="#141414" fill-rule="evenodd"/><path d="M872.303 944 1057 1155.51 1013.17 1188.17C943.941 1234.77 865.229 1268.45 780.52 1285.72L719.504 1295 700 1015.13 723.908 1011.5C772.044 1001.68 816.772 982.548 856.111 956.065L872.303 944Z" fill="#141414" fill-rule="evenodd"/></g></svg>