<svg width="1299" height="1299" xmlns="http://www.w3.org/2000/svg" xmlns:xlink="http://www.w3.org/1999/xlink" xml:space="preserve" overflow="hidden"><defs><clipPath id="clip0"><rect x="0" y="0" width="1299" height="1299"/></clipPath></defs><g clip-path="url(#clip0)"><rect x="0" y="0" width="1299" height="1299" fill="#FFFFFF" fill-opacity="0"/><path d="M633.459 0.203829C702.669-1.53431 772.965 7.80827 841.807 29.1381 1117.17 114.457 1303.33 371.138 1298.92 659.427 1294.52 947.716 1100.6 1198.59 822.756 1275.45 544.911 1352.31 249.665 1236.75 97.7677 991.703L262.242 889.719C368.87 1061.74 576.127 1142.86 771.169 1088.9 966.211 1034.95 1102.34 858.841 1105.43 656.468 1108.52 454.095 977.843 273.91 784.542 214.018 615.403 161.612 433.756 212.285 316.065 338.775L310.611 345.698 457.549 439.006 0 676.969 20.6804 161.589 145.379 240.775 174.442 206.86C294.196 78.1527 460.434 4.54953 633.459 0.203829Z" fill="#141414" fill-rule="evenodd"/></g></svg>