<svg width="1300" height="1300" xmlns="http://www.w3.org/2000/svg" xmlns:xlink="http://www.w3.org/1999/xlink" xml:space="preserve" overflow="hidden"><defs><clipPath id="clip0"><rect x="0" y="0" width="1300" height="1300"/></clipPath></defs><g clip-path="url(#clip0)"><rect x="0" y="0" width="1299" height="1299" fill="#FFFFFF" fill-opacity="0"/><path d="M0 534C-6.79853e-14 239.08 239.08-6.79853e-14 534-1.35971e-13 828.92-2.71941e-13 1068 239.08 1068 534 1068 828.92 828.92 1068 534 1068 239.08 1068-3.39927e-13 828.92 0 534ZM178.452 534C178.452 730.364 337.636 889.548 534 889.548 730.364 889.548 889.548 730.364 889.548 534 889.548 337.636 730.364 178.452 534 178.452 337.636 178.452 178.452 337.636 178.452 534Z" fill="#141414" fill-rule="evenodd"/><path d="M1272.36 1141.93C1308.38 1177.95 1308.38 1236.34 1272.36 1272.36L1272.36 1272.36C1236.34 1308.38 1177.94 1308.38 1141.93 1272.36L798.769 929.204C762.75 893.185 762.75 834.787 798.769 798.769L798.769 798.77C834.787 762.751 893.185 762.751 929.203 798.77Z" fill="#141414" fill-rule="evenodd"/></g></svg>