<svg width="1299" height="1299" xmlns="http://www.w3.org/2000/svg" xmlns:xlink="http://www.w3.org/1999/xlink" xml:space="preserve" overflow="hidden"><g><rect x="0" y="0" width="1299" height="1299" fill="#B100FF"/><path d="M216 540.5C216 361.283 361.283 216 540.5 216 719.716 216 865 361.283 865 540.5 865 719.716 719.716 865 540.5 865 361.283 865 216 719.716 216 540.5ZM251.435 540.5C251.435 700.146 380.854 829.565 540.5 829.565 700.146 829.565 829.565 700.146 829.565 540.5 829.565 380.854 700.146 251.435 540.5 251.435 380.854 251.435 251.435 380.854 251.435 540.5Z" fill="#FFFFFF" fill-rule="evenodd"/><path d="M740.66 766.656 766.655 740.661 1083.58 1057.58 1057.58 1083.58Z" fill="#FFFFFF" fill-rule="evenodd"/></g></svg>