<svg width="3032" height="1299" xmlns="http://www.w3.org/2000/svg" xmlns:xlink="http://www.w3.org/1999/xlink" xml:space="preserve" overflow="hidden"><defs><clipPath id="clip0"><rect x="-866" y="0" width="3032" height="1299"/></clipPath></defs><g clip-path="url(#clip0)" transform="translate(866 0)"><rect x="-866" y="0" width="3032" height="1299" fill="#FFFFFF" fill-opacity="0"/><path d="M139 460 139 460 139 460 147.079 460.204C230.033 464.409 296 533.001 296 617 296 700.999 230.033 769.591 147.079 773.796L139 774 139 774 139 774C139 690.001 204.967 621.409 287.921 617.204L296 617 287.921 616.796C204.967 612.591 139 543.999 139 460ZM453 460 453 460 453 460C453 543.999 387.033 612.591 304.079 616.796L296 617 304.079 617.204C387.033 621.409 453 690.001 453 774L453 774 453 774 444.921 773.796C361.967 769.591 296 700.999 296 617 296 533.001 361.967 464.409 444.921 460.204Z" fill="#B100FF" fill-rule="evenodd"/><path d="M1116.77 647.032C1111.55 647.434 1106.39 647.886 1101.27 648.389 1096.15 648.891 1091.19 649.545 1086.37 650.349 1076.75 651.756 1069.98 654.671 1066.06 659.094 1062.15 663.517 1060.3 668.744 1060.5 674.775 1060.7 681.811 1062.95 687.339 1067.27 691.36 1071.58 695.381 1076.95 697.392 1083.37 697.392 1089.79 697.19 1095.65 695.733 1100.97 693.019 1106.28 690.305 1111.55 686.335 1116.77 681.107ZM707.532 559.28 752.066 559.28 778.847 637.684C781.455 645.323 783.862 653.063 786.069 660.903 788.276 668.744 790.582 676.886 792.99 685.329L794.494 685.329C796.501 677.489 798.506 669.548 800.513 661.507 802.518 653.465 804.525 645.524 806.531 637.684L829.701 559.28 872.129 559.28 813.752 732.975 792.99 796 749.358 796 772.829 729.055ZM1096.3 555.057C1139.43 555.057 1161 579.885 1161 629.542L1161 728.15 1124.89 728.15 1121.58 710.961 1120.68 710.961C1113.46 717.194 1105.58 722.119 1097.06 725.737 1088.53 729.356 1079.45 731.166 1069.82 731.166 1054.78 731.166 1042.69 726.693 1033.57 717.747 1024.44 708.8 1019.87 696.99 1019.87 682.314 1018.87 661.607 1026.04 646.278 1041.39 636.327 1056.74 626.376 1081.86 620.897 1116.77 619.892 1117.57 612.856 1116.26 605.719 1112.85 598.481 1109.24 593.255 1101.02 590.641 1088.18 590.641 1080.36 590.641 1072.18 592.049 1063.66 594.863 1055.13 597.677 1047.06 601.598 1039.43 606.624L1026.19 574.96C1035.42 569.332 1046.1 564.607 1058.24 560.787 1070.38 556.968 1083.06 555.057 1096.3 555.057ZM985.883 555.057C990.497 555.057 994.308 555.409 997.317 556.113 1000.33 556.817 1003.13 557.671 1005.74 558.676L997.919 596.974C995.111 595.968 992.353 595.265 989.644 594.863 986.936 594.461 983.877 594.26 980.467 594.26 973.847 594.26 966.926 596.722 959.704 601.648 952.482 606.573 946.464 615.168 941.65 627.431L941.65 728.15 897.717 728.15 897.717 559.28 933.826 559.28 936.835 589.134 938.039 589.134C944.258 578.076 951.53 569.633 959.855 563.803 968.179 557.973 976.856 555.057 985.883 555.057ZM555 505 599.534 505 599.534 690.758 689.807 690.758 689.807 728.15 555 728.15Z" fill="#B100FF" fill-rule="evenodd"/><rect x="-866" y="1256" width="3032" height="43" fill="#B100FF"/></g></svg>