<svg width="1022" height="335" xmlns="http://www.w3.org/2000/svg" xmlns:xlink="http://www.w3.org/1999/xlink" xml:space="preserve" overflow="hidden"><defs><clipPath id="clip0"><rect x="139" y="482" width="1022" height="335"/></clipPath></defs><g clip-path="url(#clip0)" transform="translate(-139 -482)"><path d="M139 482 139 482 139 482 147.079 482.204C230.033 486.409 296 555.001 296 639 296 722.999 230.033 791.591 147.079 795.796L139 796 139 796 139 796C139 712.001 204.967 643.409 287.921 639.204L296 639 287.921 638.796C204.967 634.591 139 565.999 139 482ZM453 482 453 482 453 482C453 565.999 387.033 634.591 304.079 638.796L296 639 304.079 639.204C387.033 643.409 453 712.001 453 796L453 796 453 796 444.921 795.796C361.967 791.591 296 722.999 296 639 296 555.001 361.967 486.409 444.921 482.204Z" fill="#141414" fill-rule="evenodd"/><path d="M1116.77 668.544C1111.55 668.944 1106.39 669.395 1101.27 669.896 1096.15 670.397 1091.19 671.048 1086.37 671.849 1076.75 673.252 1069.98 676.157 1066.06 680.564 1062.15 684.972 1060.3 690.181 1060.5 696.191 1060.7 703.203 1062.95 708.713 1067.27 712.72 1071.58 716.727 1076.95 718.73 1083.37 718.73 1089.79 718.53 1095.65 717.077 1100.97 714.373 1106.28 711.668 1111.55 707.712 1116.77 702.502ZM707.532 581.093 752.066 581.093 778.847 659.228C781.455 666.841 783.862 674.554 786.069 682.368 788.276 690.181 790.582 698.295 792.99 706.71L794.494 706.71C796.501 698.896 798.506 690.983 800.513 682.969 802.518 674.955 804.525 667.041 806.531 659.228L829.701 581.093 872.129 581.093 813.752 754.191 792.99 817 749.358 817 772.829 750.284ZM1096.3 576.885C1139.43 576.885 1161 601.628 1161 651.114L1161 749.383 1124.89 749.383 1121.58 732.254 1120.68 732.254C1113.46 738.464 1105.58 743.373 1097.06 746.979 1088.53 750.585 1079.45 752.388 1069.82 752.388 1054.78 752.388 1042.69 747.931 1033.57 739.016 1024.44 730.1 1019.87 718.33 1019.87 703.705 1018.87 683.069 1026.04 667.792 1041.39 657.875 1056.74 647.959 1081.86 642.499 1116.77 641.497 1117.57 634.485 1116.26 627.373 1112.85 620.16 1109.24 614.951 1101.02 612.347 1088.18 612.347 1080.36 612.347 1072.18 613.75 1063.66 616.554 1055.13 619.359 1047.06 623.266 1039.43 628.275L1026.19 596.72C1035.42 591.111 1046.1 586.402 1058.24 582.595 1070.38 578.789 1083.06 576.885 1096.3 576.885ZM985.883 576.885C990.497 576.885 994.308 577.236 997.317 577.937 1000.33 578.639 1003.13 579.49 1005.74 580.492L997.919 618.658C995.111 617.656 992.353 616.955 989.644 616.554 986.936 616.153 983.877 615.953 980.467 615.953 973.847 615.953 966.926 618.407 959.704 623.316 952.482 628.224 946.464 636.789 941.65 649.01L941.65 749.383 897.717 749.383 897.717 581.093 933.826 581.093 936.835 610.844 938.039 610.844C944.258 599.825 951.53 591.411 959.855 585.6 968.179 579.79 976.856 576.885 985.883 576.885ZM555 527 599.534 527 599.534 712.119 689.807 712.119 689.807 749.383 555 749.383Z" fill="#141414" fill-rule="evenodd"/></g></svg>