<svg width="314" height="314" xmlns="http://www.w3.org/2000/svg" xmlns:xlink="http://www.w3.org/1999/xlink" xml:space="preserve" overflow="hidden"><defs><clipPath id="clip0"><rect x="493" y="493" width="314" height="314"/></clipPath></defs><g clip-path="url(#clip0)" transform="translate(-493 -493)"><path d="M493 493 493 493 493 493 501.079 493.204C584.033 497.409 650 566.001 650 650 650 733.999 584.033 802.591 501.079 806.796L493 807 493 807 493 807C493 723.001 558.967 654.409 641.921 650.204L650 650 641.921 649.796C558.967 645.591 493 576.999 493 493ZM807 493 807 493 807 493C807 576.999 741.033 645.591 658.079 649.796L650 650 658.079 650.204C741.033 654.409 807 723.001 807 807L807 807 807 807 798.921 806.796C715.967 802.591 650 733.999 650 650 650 566.001 715.967 497.409 798.921 493.204Z" fill="#141414" fill-rule="evenodd"/></g></svg>