<svg width="1299" height="1299" xmlns="http://www.w3.org/2000/svg" xmlns:xlink="http://www.w3.org/1999/xlink" xml:space="preserve" overflow="hidden"><defs><clipPath id="clip0"><rect x="0" y="0" width="1299" height="1299"/></clipPath></defs><g clip-path="url(#clip0)"><path d="M324.868 328.643 324.868 328.715 649.5 476.266 843.544 388.069 751.549 547.41 649.578 593.757 649.578 593.829 649.5 593.793 649.422 593.829 649.422 593.757 324.789 446.206 108.278 544.614 108.278 1132.26 324.71 1033.89 324.71 1033.81 324.789 1033.85 324.868 1033.81 324.868 1033.89 649.5 1181.44 974.132 1033.89 974.132 1033.81 974.211 1033.85 974.29 1033.81 974.29 1033.89 1190.57 1132.19 1190.57 544.544 1136.98 520.189 1190.73 427.092 1299 476.302 1299 593.829 1298.84 593.757 1298.84 1181.4 1299 1181.47 1299 1299 974.211 1151.38 649.578 1298.93 649.578 1299 649.5 1298.96 649.422 1299 649.422 1298.93 324.789 1151.38 -4.41838e-20 1299-7.19653e-15 1181.47 0.00108236 1181.47 0.00108236 593.828-4.31793e-14 593.828-5.03758e-14 476.301 324.711 328.714 324.711 328.643 324.789 328.679ZM1159.37 0 1299 80.6167 855.608 848.594 855.607 848.593 716.294 928.657 715.976 767.976 715.976 767.976Z" fill="#B100FF" fill-rule="evenodd"/></g></svg>