<svg width="2123" height="308" xmlns="http://www.w3.org/2000/svg" xmlns:xlink="http://www.w3.org/1999/xlink" xml:space="preserve" overflow="hidden"><defs><clipPath id="clip0"><rect x="-412" y="499" width="2123" height="308"/></clipPath></defs><g clip-path="url(#clip0)" transform="translate(412 -499)"><path d="M1311.68 707.602 1311.68 737.76 1425.63 737.76 1425.63 707.602ZM40.6096 693.495 73.7253 693.495 73.7253 736.787 225.667 736.787 225.667 764.027 40.6096 764.027ZM1501.59 688.631 1534.71 688.631 1534.71 736.787 1686.65 736.787 1686.65 764.027 1501.59 764.027ZM1278.56 681.334 1458.75 681.334 1458.75 764.027 1278.56 764.027ZM89.309 617.612C81.5175 617.612 75.349 619.234 70.8035 622.477 66.2579 625.719 63.9855 630.34 63.9855 636.34 63.9855 642.339 66.2579 646.96 70.8035 650.203 75.349 653.445 81.5175 655.067 89.309 655.067L106.354 655.067C114.47 655.067 120.72 653.445 125.103 650.203 129.486 646.96 131.678 642.339 131.678 636.34 131.678 630.34 129.486 625.719 125.103 622.477 120.72 619.234 114.47 617.612 106.354 617.612ZM84.6826 591.345 110.98 591.345C118.773 591.345 125.955 592.278 132.53 594.142 139.104 596.006 144.786 598.803 149.574 602.533 154.363 606.262 158.097 610.965 160.776 616.639 163.454 622.314 164.793 628.881 164.793 636.34 164.793 643.96 163.454 650.568 160.776 656.162 158.097 661.756 154.363 666.417 149.574 670.146 144.786 673.876 139.104 676.673 132.53 678.537 125.955 680.402 118.773 681.334 110.98 681.334L84.6826 681.334C76.8911 681.334 69.7077 680.402 63.1336 678.537 56.5588 676.673 50.8774 673.876 46.0886 670.146 41.2998 666.417 37.5661 661.756 34.8874 656.162 32.2094 650.568 30.8697 643.96 30.8697 636.34 30.8697 628.881 32.2094 622.314 34.8874 616.639 37.5661 610.965 41.2998 606.262 46.0886 602.533 50.8774 598.803 56.5588 596.006 63.1336 594.142 69.7077 592.278 76.8911 591.345 84.6826 591.345ZM1539.82 576.509 1539.82 641.934 1580.73 641.934 1580.73 576.509ZM1043.36 554.863 1223.54 554.863 1223.54 724.87 1244.24 724.87 1244.24 752.839 1027.53 752.839 1027.53 724.87 1190.43 724.87 1190.43 583.076 1043.36 583.076ZM493.975 553.89 626.438 553.89 626.438 581.617 578.712 581.617 578.712 630.503C578.712 641.042 579.807 651.054 581.999 660.539 584.191 670.025 587.437 678.74 591.739 686.685 596.041 694.63 601.276 701.562 607.445 707.48 613.613 713.398 620.755 718.06 628.872 721.465L628.872 751.38C622.379 749.434 615.845 746.597 609.271 742.867 602.696 739.138 596.406 734.76 590.4 729.734 584.394 724.707 578.956 719.276 574.085 713.439 569.216 707.602 565.239 701.521 562.154 695.197 554.687 709.953 544.744 722.154 532.326 731.801 519.908 741.449 506.312 748.218 491.54 752.11L491.54 722.194C499.494 719.762 506.759 715.79 513.333 710.276 519.908 704.764 525.467 698.075 530.012 690.211 534.558 682.347 538.088 673.349 540.605 663.215 543.121 653.081 544.379 642.177 544.379 630.503L544.379 581.617 493.975 581.617ZM736.485 552.431 917.89 552.431 917.89 580.157 769.601 580.157 769.601 656.283 921.543 656.283 921.543 684.01 846.302 684.01 846.302 728.761 934.935 728.761 934.935 756.731 718.223 756.731 718.223 728.761 811.725 728.761 811.725 684.01 736.485 684.01ZM1486.01 550.242 1634.05 550.242 1634.05 576.509 1613.84 576.509 1613.84 641.934 1636.49 641.934 1636.49 668.201 1483.57 668.201 1483.57 641.934 1506.71 641.934 1506.71 576.509 1486.01 576.509ZM1262.73 550.242 1391.54 550.242 1391.54 619.314 1295.85 619.314 1295.85 639.745 1411.02 639.745 1411.02 665.525 1262.73 665.525 1262.73 594.264 1358.43 594.264 1358.43 576.023 1262.73 576.023ZM270.945 548.782 458.438 548.782 458.438 630.016 474.265 630.016 474.265 656.04 380.762 656.04 380.762 683.766 458.438 683.766 458.438 765 425.322 765 425.322 711.007 270.945 711.007 270.945 683.766 346.186 683.766 346.186 656.04 257.553 656.04 257.553 630.016 425.322 630.016 425.322 576.023 270.945 576.023ZM1648.66 547.809 1681.78 547.809 1681.78 593.777 1711 593.777 1711 623.45 1681.78 623.45 1681.78 706.871 1648.66 706.871ZM1425.63 547.809 1458.75 547.809 1458.75 672.822 1425.63 672.822ZM655.657 547.809 688.772 547.809 688.772 765 655.657 765ZM187.682 547.809 220.798 547.809 220.798 607.154 250.017 607.154 250.017 636.826 220.798 636.826 220.798 706.871 187.682 706.871ZM80.2994 541 115.364 541 115.364 558.755 169.664 558.755 169.664 583.805 26.0001 583.805 26.0001 558.755 80.2994 558.755Z" fill="#B100FF" fill-rule="evenodd"/><path d="M-335.222 576.923-335.222 576.94-258.5 611.925-212.64 591.013-234.382 628.794-258.481 639.783-258.481 639.8-258.5 639.792-258.519 639.8-258.519 639.783-335.241 604.798-386.41 628.131-386.41 767.465-335.259 744.14-335.259 744.123-335.241 744.132-335.222 744.123-335.222 744.14-258.5 779.125-181.778 744.14-181.778 744.123-181.759 744.132-181.741 744.123-181.741 744.14-130.627 767.448-130.627 628.115-143.29 622.34-130.587 600.266-105 611.934-105 639.8-105.037 639.783-105.037 779.117-105 779.134-105 807-181.759 771.998-258.481 806.983-258.481 807-258.5 806.992-258.519 807-258.519 806.983-335.241 771.998-412 807-412 779.134-412 779.133-412 639.8-412 639.8-412 611.934-335.259 576.94-335.259 576.923-335.241 576.932ZM-138 499-105 518.115-209.789 700.206-209.789 700.206-242.714 719.19-242.789 681.091-242.789 681.091Z" fill="#B100FF" fill-rule="evenodd"/></g></svg>