<svg width="1299" height="1299" xmlns="http://www.w3.org/2000/svg" xmlns:xlink="http://www.w3.org/1999/xlink" xml:space="preserve" overflow="hidden"><defs><clipPath id="clip0"><rect x="0" y="0" width="1299" height="1299"/></clipPath></defs><g clip-path="url(#clip0)"><rect x="0" y="0" width="1299" height="1299" fill="#000000" fill-opacity="0"/><path d="M474.408 175 513.321 213.944 105.34 622.259C417.673 622.259 730.006 622.259 1042.34 622.259 1184.09 622.259 1299 737.264 1299 879.13 1299 1021 1184.09 1136 1042.34 1136L930.501 1136 930.501 1080.92 1042.34 1080.92C1153.7 1080.92 1243.97 990.578 1243.97 879.13 1243.97 767.681 1153.7 677.334 1042.34 677.334 730.006 677.334 417.673 677.334 105.34 677.334L513.32 1085.65 474.408 1124.59-0.000180446 649.796 38.9123 610.852 38.9126 610.852 474.408 175Z" fill-rule="evenodd"/></g></svg>