<svg width="1299" height="1299" xmlns="http://www.w3.org/2000/svg" xmlns:xlink="http://www.w3.org/1999/xlink" xml:space="preserve" overflow="hidden"><defs><clipPath id="clip0"><rect x="0" y="0" width="1299" height="1299"/></clipPath></defs><g clip-path="url(#clip0)"><rect x="0" y="0" width="1299" height="1299" fill="#000000" fill-opacity="0"/><path d="M961 474.409 922.056 513.321 513.742 105.34C513.742 417.673 513.741 730.006 513.741 1042.34 513.741 1184.09 398.736 1299 256.871 1299 115.005 1299 0 1184.09 0 1042.34L0 930.501 55.0754 930.501 55.0754 1042.34C55.0754 1153.7 145.422 1243.97 256.871 1243.97 368.319 1243.97 458.666 1153.7 458.666 1042.34 458.666 730.006 458.666 417.673 458.666 105.34L50.3513 513.321 11.4074 474.408 486.204 0 525.148 38.9125 525.148 38.9128 961 474.409Z" fill-rule="evenodd" transform="matrix(-6.12323e-17 -1 -1 6.12323e-17 1299 1136)"/></g></svg>