<svg width="1299" height="1299" xmlns="http://www.w3.org/2000/svg" xmlns:xlink="http://www.w3.org/1999/xlink" xml:space="preserve" overflow="hidden"><g><rect x="0" y="0" width="1299" height="1299" fill="#000000" fill-opacity="0"/><path d="M649.5 48.1154 577.318 53.8474C524.85 63.1988 473.35 82.9939 425.859 113.876 235.896 237.404 182.029 491.557 305.542 681.543L649.5 1210.61 993.458 681.543C1116.97 491.557 1063.1 237.404 873.141 113.876 825.65 82.9939 774.15 63.1988 721.682 53.8474ZM649.5 0 730.158 6.40523C788.787 16.8554 846.335 38.974 899.402 73.4823 1111.67 211.515 1171.86 495.513 1033.85 707.806L649.5 1299 265.153 707.806C127.137 495.513 187.33 211.515 399.598 73.4823 452.665 38.974 510.213 16.8554 568.842 6.40523Z" fill-rule="evenodd"/><path d="M477 458C477 362.455 554.455 285 650 285 745.546 285 823 362.455 823 458 823 553.545 745.546 631 650 631 554.455 631 477 553.545 477 458ZM526.713 458C526.713 526.089 581.911 581.287 650 581.287 718.09 581.287 773.287 526.089 773.287 458 773.287 389.911 718.09 334.713 650 334.713 581.911 334.713 526.713 389.911 526.713 458Z" fill-rule="evenodd"/></g></svg>