<svg width="1299" height="1299" xmlns="http://www.w3.org/2000/svg" xmlns:xlink="http://www.w3.org/1999/xlink" xml:space="preserve" overflow="hidden"><defs><clipPath id="clip0"><rect x="0" y="0" width="1299" height="1299"/></clipPath></defs><g clip-path="url(#clip0)"><path d="M0 1299 336.496 0 399 0 62.5038 1299Z" fill-rule="evenodd"/><path d="M787.69 894 901 894 901 949 732.62 949ZM-0.000180446 894 616.117 894 671.185 949-0.000180446 949Z" fill-rule="evenodd"/><path d="M735.691 350 901 350 901 405 790.76 405ZM-0.000180446 350 679.016 350 623.947 405-0.000180446 405Z" fill-rule="evenodd"/><path d="M586.442 864.934 636.095 914.542 536.504 1299 474 1299ZM810.497 0 873 0 772.654 387.372 723.001 337.765Z" fill-rule="evenodd"/><rect x="0" y="0" width="55" height="792" transform="matrix(-6.12323e-17 -1 -1 6.12323e-17 1299 677)"/><rect x="0" y="0" width="55.0462" height="377.269" transform="matrix(0.707107 -0.707107 -0.707107 -0.707107 706.769 916.456)"/><rect x="0" y="0" width="55.0462" height="377.269" transform="matrix(-0.707107 -0.707107 -0.707107 0.707107 745.693 421.842)"/></g></svg>