<svg width="1300" height="1300" xmlns="http://www.w3.org/2000/svg" xmlns:xlink="http://www.w3.org/1999/xlink" xml:space="preserve" overflow="hidden"><g><rect x="60" y="622" width="1179" height="55"/><path d="M1032.61 916.457 993.682 877.533 1260.45 610.764 1299.37 649.687Z" fill-rule="evenodd"/><path d="M993.682 421.842 1032.61 382.918 1299.37 649.688 1260.45 688.611Z" fill-rule="evenodd"/><path d="M266.77 382.919 305.693 421.842 38.9241 688.612 0.000579834 649.688Z" fill-rule="evenodd"/><path d="M305.693 877.533 266.769 916.457 0.000213623 649.688 38.9238 610.764Z" fill-rule="evenodd"/><path d="M382.919 1032.61 421.842 993.682 688.611 1260.45 649.688 1299.37Z" fill-rule="evenodd"/><path d="M877.533 993.682 916.457 1032.61 649.688 1299.37 610.764 1260.45Z" fill-rule="evenodd"/><path d="M916.456 266.77 877.533 305.693 610.764 38.9243 649.687 0.000762939Z" fill-rule="evenodd"/><path d="M421.842 305.693 382.918 266.77 649.687 0.000396729 688.611 38.924Z" fill-rule="evenodd"/><rect x="622" y="60.0002" width="55" height="1179"/></g></svg>