<svg width="1299" height="1299" xmlns="http://www.w3.org/2000/svg" xmlns:xlink="http://www.w3.org/1999/xlink" xml:space="preserve" overflow="hidden"><g><rect x="0" y="0" width="1299" height="1299" fill="#000000" fill-opacity="0"/><path d="M466.908 426.129 520.078 411.882 719.369 1155.64 666.198 1169.89Z" fill-rule="evenodd"/><path d="M992.138 88.13 1045.31 73.8829 1293.92 1001.7 1240.74 1015.94Z" fill-rule="evenodd"/><path d="M1045.31 73.8832 1059.56 127.054 485.009 281.003 470.762 227.833Z" fill-rule="evenodd"/><path d="M1279.67 948.525 1293.91 1001.7 666.199 1169.89 651.952 1116.72Z" fill-rule="evenodd"/><path d="M0 189.986 189.986 0 261.509 0 0 261.509Z" fill-rule="evenodd" transform="matrix(-0.965926 0.258819 0.258819 0.965926 470.762 227.832)"/><path d="M1248.74 159.648 1262.99 212.819 873.087 317.294 858.84 264.123Z" fill-rule="evenodd"/><path d="M218.5 1004 180.942 1001.02C153.641 996.163 126.844 985.878 102.133 969.833 3.29111 905.651-24.7379 773.6 39.5294 674.889L218.5 400 397.471 674.889C461.738 773.6 433.709 905.651 334.867 969.833 310.156 985.878 283.359 996.163 256.059 1001.02Z" fill-rule="evenodd"/></g></svg>